<svg width="800" height="1000" viewBox="0 0 220 280" fill="none" xmlns="http://www.w3.org/2000/svg">
  <defs>
    <mask id="hc2">
      <rect width="220" height="280" fill="white"/>
      <path d="M110 132
               Q96 118 86 124
               Q74 132 80 146
               Q86 164 110 182
               Q134 164 140 146
               Q146 132 134 124
               Q124 118 110 132 Z" fill="black"/>
    </mask>
  </defs>
  <path d="M110 30 Q70 70 58 120 Q46 175 70 210 Q90 240 110 240 L110 30Z"
        fill="#7bc67e" mask="url(#hc2)"/>
  <path d="M110 30 Q150 70 162 120 Q174 175 150 210 Q130 240 110 240 L110 30Z"
        fill="#2d6b4a" mask="url(#hc2)"/>
  <text x="110" y="268" text-anchor="middle"
        font-family="sans-serif" font-size="17" font-weight="600"
        letter-spacing="5" fill="#2d6b4a">LEV LAB</text>
</svg>